<?xml version="1.0" encoding="UTF-8"?>
<svg id="Layer_2" data-name="Layer 2" xmlns="http://www.w3.org/2000/svg" viewBox="0 0 1129.95 355.46">
  <g id="Layer_1-2" data-name="Layer 1">
    <g>
      <path d="M159.44,75.58c0-5.45-.94-10.71-2.83-15.75,1.89-5.03,2.83-10.28,2.83-15.75,0-11.96-3.98-21.88-11.95-29.75-7.97-7.88-17.92-11.82-29.87-11.82h-29.25c-24.95,0-45.92,8.5-62.9,25.51C8.49,45.02,0,66.01,0,90.98v167.17c0,11.96,3.93,21.88,11.79,29.75,7.86,7.87,17.77,11.81,29.72,11.81s21.91-3.93,29.88-11.8c7.96-7.86,11.95-17.77,11.95-29.72v-42.77h34.28c11.95,0,21.9-3.98,29.87-11.96,7.97-7.98,11.95-17.96,11.95-29.93,0-5.45-.94-10.7-2.83-15.74,1.89-4.83,2.83-10.08,2.83-15.75,0-14.07-5.24-25.09-15.72-33.07,10.48-8.19,15.72-19.32,15.72-33.39ZM117.62,121.08c6.29,0,11.42,1.94,15.41,5.81,3.98,3.89,5.97,8.97,5.97,15.26s-1.99,11.43-5.97,15.41c-3.99,3.98-9.12,5.97-15.41,5.97h-54.72v63.22c0,6.29-2,11.37-5.98,15.25-3.99,3.87-9.12,5.82-15.41,5.82s-11.38-1.95-15.25-5.83c-3.88-3.88-5.82-8.98-5.82-15.27V90.98c0-19.53,6.45-35.74,19.34-48.65,12.89-12.92,29.09-19.38,48.59-19.38h29.25c6.29,0,11.42,1.96,15.41,5.87,3.98,3.91,5.97,9.03,5.97,15.36s-1.99,11.52-5.97,15.53c-3.99,4.01-9.12,6.02-15.41,6.02h-29.25c-7.13,0-13.16,2.46-18.08,7.39-4.93,4.92-7.39,10.95-7.39,18.08v29.88h54.72Z" style="fill: #1b262c; stroke-width: 0px;"/>
      <path d="M133.03,126.89c3.98,3.89,5.97,8.97,5.97,15.26s-1.99,11.43-5.97,15.41c-3.99,3.98-9.12,5.97-15.41,5.97h-54.72v63.22c0,6.29-2,11.37-5.98,15.25-3.99,3.87-9.12,5.82-15.41,5.82s-11.38-1.95-15.25-5.83c-3.88-3.88-5.82-8.98-5.82-15.27V90.98c0-19.53,6.45-35.74,19.34-48.65,12.89-12.92,29.09-19.38,48.59-19.38h29.25c6.29,0,11.42,1.96,15.41,5.87,3.98,3.91,5.97,9.03,5.97,15.36s-1.99,11.52-5.97,15.53c-3.99,4.01-9.12,6.02-15.41,6.02h-29.25c-7.13,0-13.16,2.46-18.08,7.39-4.93,4.92-7.39,10.95-7.39,18.08v29.88h54.72c6.29,0,11.42,1.94,15.41,5.81Z" style="fill: #f1f2f2; stroke-width: 0px;"/>
      <path d="M237.44,46.54c0-12.79-4.56-23.74-13.69-32.86-9.12-9.12-20.07-13.68-32.86-13.68s-23.74,4.56-32.86,13.68-13.68,20.07-13.68,32.86c0,5.46.94,10.69,2.83,15.73-1.89,5.03-2.83,10.27-2.83,15.72,0,7.97,1.68,15.41,5.03,22.33v157.87c0,11.95,3.93,21.86,11.79,29.72,7.86,7.87,17.77,11.8,29.72,11.8s21.65-3.93,29.72-11.8c8.07-7.86,12.11-17.77,12.11-29.72V100c3.14-6.7,4.72-14.04,4.72-22.01,0-5.45-.95-10.69-2.84-15.72,1.89-5.04,2.84-10.27,2.84-15.73ZM212.28,226.75c0,6.29-2,11.37-5.98,15.25-3.99,3.87-9.12,5.82-15.41,5.82s-11.38-1.95-15.25-5.82-5.82-8.96-5.82-15.25v-117.94c0-6.29,1.94-11.37,5.82-15.25,3.87-3.88,8.96-5.82,15.25-5.82,14.26,0,21.39,7.03,21.39,21.07v117.94ZM209.29,64.94c-5.14,5.14-11.27,7.7-18.4,7.7s-13.26-2.56-18.4-7.7c-5.14-5.14-7.7-11.27-7.7-18.4s2.56-13.26,7.7-18.4c5.14-5.13,11.27-7.7,18.4-7.7s13.26,2.57,18.4,7.7c5.13,5.14,7.7,11.28,7.7,18.4s-2.57,13.26-7.7,18.4Z" style="fill: #1b262c; stroke-width: 0px;"/>
      <path d="M216.99,46.54c0,7.13-2.57,13.26-7.7,18.4-5.14,5.14-11.27,7.7-18.4,7.7s-13.26-2.56-18.4-7.7c-5.14-5.14-7.7-11.27-7.7-18.4s2.56-13.26,7.7-18.4c5.14-5.13,11.27-7.7,18.4-7.7s13.26,2.57,18.4,7.7c5.13,5.14,7.7,11.28,7.7,18.4Z" style="fill: #f1f2f2; stroke-width: 0px;"/>
      <path d="M212.28,108.81v117.94c0,6.29-2,11.37-5.98,15.25-3.99,3.87-9.12,5.82-15.41,5.82s-11.38-1.95-15.25-5.82-5.82-8.96-5.82-15.25v-117.94c0-6.29,1.94-11.37,5.82-15.25,3.87-3.88,8.96-5.82,15.25-5.82,14.26,0,21.39,7.03,21.39,21.07Z" style="fill: #f1f2f2; stroke-width: 0px;"/>
      <path d="M294.36,14.62c-7.55-7.44-17.72-11.16-30.51-11.16-11.95,0-21.86,3.93-29.72,11.79-7.86,7.86-11.79,17.77-11.79,29.72v213.22c0,11.95,3.93,21.86,11.79,29.72,7.86,7.87,17.77,11.8,29.72,11.8s21.65-3.93,29.72-11.8c8.07-7.86,12.11-17.77,12.11-29.72V44.97c0-12.79-3.78-22.9-11.32-30.35ZM285.24,226.75c0,6.29-2,11.37-5.98,15.25-3.98,3.87-9.12,5.82-15.41,5.82s-11.37-1.95-15.25-5.82c-3.88-3.88-5.82-8.96-5.82-15.25V44.97c0-6.29,1.94-11.37,5.82-15.25,3.88-3.88,8.96-5.82,15.25-5.82,14.26,0,21.39,7.02,21.39,21.07v181.78Z" style="fill: #1b262c; stroke-width: 0px;"/>
      <path d="M285.24,44.97v181.78c0,6.29-2,11.37-5.98,15.25-3.98,3.87-9.12,5.82-15.41,5.82s-11.37-1.95-15.25-5.82c-3.88-3.88-5.82-8.96-5.82-15.25V44.97c0-6.29,1.94-11.37,5.82-15.25,3.88-3.88,8.96-5.82,15.25-5.82,14.26,0,21.39,7.02,21.39,21.07Z" style="fill: #f1f2f2; stroke-width: 0px;"/>
      <circle cx="649.88" cy="167.93" r="87.91" style="fill: #f2d230; stroke-width: 0px;"/>
      <circle cx="839.52" cy="167.93" r="87.91" style="fill: #f2d230; stroke-width: 0px;"/>
      <path d="M750.68,167.76c0-28.55-9.7-52.49-29.09-71.8-19.4-19.32-43.35-28.98-71.86-28.98s-52.42,9.66-71.71,28.98c-19.29,19.31-28.93,43.25-28.93,71.8,0,5.25.42,10.49,1.26,15.74-.84,5.25-1.26,10.5-1.26,15.75,0,28.55,9.64,52.54,28.93,71.96,19.29,19.42,43.19,29.13,71.71,29.13s52.2-9.77,71.7-29.29c19.5-19.53,29.25-43.46,29.25-71.8,0-5.25-.42-10.39-1.26-15.43.84-5.25,1.26-10.6,1.26-16.06ZM707.12,225.29c-15.41,15.43-34.54,23.15-57.39,23.15s-41.94-7.72-57.24-23.15c-15.31-15.44-22.96-34.61-22.96-57.51s7.65-42.02,22.96-57.35c15.3-15.33,34.38-23.01,57.24-23.01s41.98,7.68,57.39,23.01c15.41,15.33,23.12,34.45,23.12,57.35s-7.71,42.07-23.12,57.51Z" style="fill: #1b262c; stroke-width: 0px;"/>
      <path d="M940.32,167.76c0-28.55-9.7-52.49-29.1-71.8-19.39-19.32-43.35-28.98-71.86-28.98s-52.41,9.66-71.7,28.98c-19.29,19.31-28.93,43.25-28.93,71.8,0,5.25.41,10.49,1.25,15.74-.84,5.25-1.25,10.5-1.25,15.75,0,28.55,9.64,52.54,28.93,71.96,19.29,19.42,43.19,29.13,71.7,29.13s52.21-9.77,71.71-29.29c19.5-19.53,29.25-43.46,29.25-71.8,0-5.25-.43-10.39-1.26-15.43.83-5.25,1.26-10.6,1.26-16.06ZM896.76,225.29c-15.41,15.43-34.55,23.15-57.4,23.15s-41.93-7.72-57.23-23.15c-15.31-15.44-22.96-34.61-22.96-57.51s7.65-42.02,22.96-57.35c15.3-15.33,34.38-23.01,57.23-23.01s41.99,7.68,57.4,23.01c15.41,15.33,23.11,34.45,23.11,57.35s-7.7,42.07-23.11,57.51Z" style="fill: #1b262c; stroke-width: 0px;"/>
      <path d="M1118,14.32c-7.97-7.87-17.92-11.81-29.87-11.81s-21.6,4.01-29.57,12.01c-7.97,8.01-11.95,17.9-11.95,29.7v25.91c-5.45-2.09-11.32-3.15-17.61-3.15-28.51,0-52.41,9.69-71.7,29.05-19.29,19.38-28.94,43.3-28.94,71.77,0,5.24.42,10.47,1.26,15.7-.84,5.24-1.26,10.47-1.26,15.71,0,28.26,9.7,52.08,29.1,71.45,19.38,19.36,43.24,29.05,71.54,29.05s51.94-9.77,71.55-29.28c19.6-19.52,29.4-43.34,29.4-71.47V44.07c0-11.96-3.98-21.88-11.95-29.75ZM1109.51,167.51c0,22.68-7.76,41.73-23.27,57.16-15.52,15.43-34.6,23.15-57.24,23.15s-41.67-7.7-57.08-23.07c-15.41-15.39-23.11-34.37-23.11-56.97s7.65-41.9,22.95-57.28c15.31-15.38,34.39-23.08,57.24-23.08,6.29,0,11.43,1.99,15.41,5.97,3.98,3.97,5.98,9.09,5.98,15.36s-2,11.35-5.98,15.21c-3.98,3.88-9.12,5.81-15.41,5.81-10.49,0-19.39,3.71-26.73,11.13-7.34,7.43-11.01,16.37-11.01,26.82s3.67,19.34,11.01,26.66,16.24,10.98,26.73,10.98,19.45-3.68,26.89-11.03c7.44-7.35,11.16-16.27,11.16-26.77V44.06c0-6.09,1.99-11.13,5.98-15.12,3.98-3.99,9.01-5.99,15.1-5.99s11.42,1.95,15.41,5.83c3.98,3.88,5.97,8.97,5.97,15.27v123.46ZM1041.58,179.57c-3.36,3.57-7.55,5.35-12.58,5.35-2.73,0-5.24-.52-7.55-1.58,8.6-2.3,15.31-3.56,20.13-3.77Z" style="fill: #1b262c; stroke-width: 0px;"/>
      <path d="M1109.51,44.05v123.46c0,22.68-7.76,41.73-23.27,57.16-15.52,15.43-34.6,23.15-57.24,23.15s-41.67-7.7-57.08-23.07c-15.41-15.39-23.11-34.37-23.11-56.97s7.65-41.9,22.95-57.28c15.31-15.38,34.39-23.08,57.24-23.08,6.29,0,11.43,1.99,15.41,5.97,3.98,3.97,5.98,9.09,5.98,15.36s-2,11.35-5.98,15.21c-3.98,3.88-9.12,5.81-15.41,5.81-10.49,0-19.39,3.71-26.73,11.13-7.34,7.43-11.01,16.37-11.01,26.82s3.67,19.34,11.01,26.66,16.24,10.98,26.73,10.98,19.45-3.68,26.89-11.03c7.44-7.35,11.16-16.27,11.16-26.77V44.06c0-6.09,1.99-11.13,5.98-15.12,3.98-3.99,9.01-5.99,15.1-5.99s11.42,1.95,15.41,5.83c3.98,3.88,5.97,8.97,5.97,15.27Z" style="fill: #f1f2f2; stroke-width: 0px;"/>
      <path d="M554.84,355.19c-40.42-1.73-78.71-28.93-78.71-74.66V122.65c0-3.15-1.47-4.82-4.4-5.03v140.58c0,11.95-3.99,21.86-11.95,29.72-7.97,7.86-17.93,11.79-29.88,11.79s-21.86-3.93-29.72-11.79-11.79-17.77-11.79-29.72V122.65c0-2.73-2.18-5-4.91-5.03-3.44-.04-5.15,1.64-5.15,5.03v135.55c0,11.95-3.93,21.86-11.79,29.72s-17.77,11.79-29.72,11.79-21.91-3.94-29.88-11.8c-7.97-7.88-11.95-17.79-11.95-29.75V90.98c0-24.77,8.54-45.7,25.63-62.8,17.09-17.11,38-25.66,62.74-25.66,15.93,0,30.61,3.99,44.03,11.95,13.21-7.96,27.88-11.95,44.03-11.95,24.74,0,45.6,8.55,62.58,25.67,16.98,17.11,25.47,38.05,25.47,62.82l.54,153.69c0,.21,4.72,3.19,6.08,6.75,2.17,5.74-7.42,2.66-4.28,2.66,12.37,0,22.64,3.93,30.82,11.79s12.27,17.87,12.27,30.03c0,5.45-.94,10.69-2.83,15.72,1.89,4.82,2.83,10.06,2.83,15.72,0,11.95.23,19.19-10.09,23.55-9.59,4.05-20.25,5.1-39.97,4.26Z" style="fill: #1b262c; stroke-width: 0px;"/>
      <path d="M583.35,295.93c0,6.29-1.99,11.37-5.97,15.26-3.99,3.87-9.12,5.81-15.41,5.81h2.53c-19.29,0-35.43-6.5-48.43-19.49-13-13.01-19.5-29.15-19.5-48.44V91.2c0-6.92-2.47-12.9-7.39-17.93-4.93-5.03-10.85-7.54-17.77-7.54-8.39,0-15.09,3.35-20.13,10.06v150.96c0,6.29-1.99,11.37-5.97,15.25-3.99,3.87-9.12,5.82-15.41,5.82s-11.38-1.95-15.25-5.82c-3.89-3.88-5.82-8.96-5.82-15.25V91.2c0-6.92-2.52-12.9-7.55-17.93s-11.01-7.54-17.93-7.54-13.16,2.46-18.08,7.39c-4.93,4.92-7.39,10.95-7.39,18.08v135.55c0,6.29-1.94,11.37-5.82,15.25-3.88,3.87-8.96,5.82-15.25,5.82s-11.43-1.95-15.41-5.83c-3.99-3.88-5.98-8.98-5.98-15.27V90.98c0-19.31,6.5-35.48,19.5-48.5,13-13.01,29.14-19.53,48.43-19.53,16.56,0,31.24,5.56,44.03,16.67,12.58-11.11,27.25-16.67,44.03-16.67,19.29,0,35.38,6.52,48.28,19.53,12.89,13.01,19.34,29.18,19.34,48.49v158.07c0,7.14,2.46,13.17,7.39,18.11,4.92,4.93,10.95,7.4,18.08,7.4h-2.53c6.29,0,11.42,1.99,15.41,5.97,3.98,3.98,5.97,9.12,5.97,15.41Z" style="fill: #f1f2f2; stroke-width: 0px;"/>
    </g>
    <path d="M707.53,194.65c-29.71,33.86-83.31,33.86-113.02,0-4.81-5.46-4.8-12.67-.91-14.86h0c3.9-2.22,9.42.04,13.04,4.11,23.33,26.59,65.42,26.59,88.75,0,3.62-4.07,9.15-6.33,13.04-4.11h0c3.89,2.19,3.9,9.4-.91,14.86Z" style="fill: #1b262c; stroke-width: 0px;"/>
    <path d="M795.15,208.09c23.33-26.59,65.42-26.59,88.75,0,3.62,4.07,9.15,6.33,13.04,4.11t0,0c3.89-2.19,3.9-9.4-.91-14.86-29.71-33.86-83.31-33.86-113.02,0-4.81,5.46-4.8,12.67-.91,14.86t0,0c3.9,2.22,9.42-.04,13.04-4.11Z" style="fill: #1b262c; stroke-width: 0px;"/>
  </g>
</svg>